<?xml version="1.0" encoding="UTF-8" standalone="no"?>
<svg width="160px" height="39px" viewBox="0 0 160 39" version="1.1" xmlns="http://www.w3.org/2000/svg" xmlns:xlink="http://www.w3.org/1999/xlink" xmlns:sketch="http://www.bohemiancoding.com/sketch/ns">
    <!-- Generator: Sketch 3.0.4 (8054) - http://www.bohemiancoding.com/sketch -->
    <title>alina_loseva_logo</title>
    <desc>Created with Sketch.</desc>
    <defs></defs>
    <g id="Page-1" stroke="none" stroke-width="1" fill="none" fill-rule="evenodd" sketch:type="MSPage">
        <g id="alina_loseva_logo" sketch:type="MSLayerGroup">
            <rect id="Rectangle-7" fill="#000000" sketch:type="MSShapeGroup" transform="translate(80.000000, 19.500000) rotate(-270.000000) translate(-80.000000, -19.500000) " x="61" y="-60" width="38" height="159"></rect>
            <path d="M24.0006104,25.5769867 L18.9966476,25.5769867 C18.9966476,24.128431 19.8054981,23.8273216 20.7085216,23.8273216 L21.3482267,23.8273216 C22.363709,21.2313197 25.1669522,14.1016097 25.3927843,13.6124593 C25.9758028,12.3144584 27.0668672,11.9569671 28.4401456,12.0700355 C28.4401456,12.0700355 30.4153379,16.9234437 33.1993808,23.8273216 L34.9115596,23.8273216 C34.9115596,25.2758773 34.1024043,25.5769867 33.1993808,25.5769867 L28.1957227,25.5769867 C28.1957227,24.2597854 28.8729141,23.8837034 29.6817647,23.8462171 L28.6848731,21.3440833 L24.2828243,21.3440833 L23.3420098,23.8273216 L25.7124845,23.8273216 C25.7124845,25.2758773 24.9036339,25.5769867 24.0006104,25.5769867 L24.0006104,25.5769867 Z M24.9225294,19.6885911 L28.0262725,19.6885911 L26.4460577,15.7382064 L24.9225294,19.6885911 L24.9225294,19.6885911 Z" id="Fill-1" fill="#FFFFFF" sketch:type="MSShapeGroup"></path>
            <path d="M39.9155225,11.2048032 L39.9155225,23.9964671 L41.42046,23.9964671 C41.42046,25.4450227 40.6116094,25.5580911 39.708586,25.5580911 L35.2879464,25.5580911 C35.2879464,24.2222991 35.9840333,24.0153626 36.8114746,23.9964671 L36.8114746,12.973059 L35.2879464,12.973059 C35.2879464,11.7689261 35.4948829,11.0539437 38.3353077,11.0539437 C38.5800352,11.0539437 39.6896904,11.1481166 39.9155225,11.2048032" id="Fill-2" fill="#FFFFFF" sketch:type="MSShapeGroup"></path>
            <path d="M47.128129,16.1142884 L47.128129,23.9964671 L48.6330664,23.9964671 C48.6330664,25.4450227 47.8242159,25.5580911 46.9211924,25.5580911 L42.5005528,25.5580911 C42.5005528,24.2222991 43.1966398,24.0153626 44.0240811,23.9964671 L44.0240811,17.8825442 L42.5005528,17.8825442 C42.5005528,16.6787161 42.7074894,15.9640384 45.5479141,15.9640384 C45.7926417,15.9640384 46.9022969,16.0579066 47.128129,16.1142884 L47.128129,16.1142884 Z M45.3223868,11.4867123 C46.2817921,11.4867123 47.0717471,12.2769721 47.0717471,13.2552729 C47.0717471,14.2146781 46.2817921,15.0046332 45.3223868,15.0046332 C44.3629816,15.0046332 43.5727218,14.2146781 43.5727218,13.2552729 C43.5727218,12.2769721 44.3629816,11.4867123 45.3223868,11.4867123 L45.3223868,11.4867123 Z" id="Fill-3" fill="#FFFFFF" sketch:type="MSShapeGroup"></path>
            <path d="M54.7430273,16.1142884 L54.7430273,17.3373168 C55.4954961,16.6223343 56.4737969,15.9640384 57.6590342,15.9640384 C60.4619726,15.9640384 61.2708232,17.5442533 61.2708232,19.9897005 L61.2708232,23.9964671 L62.7757607,23.9964671 C62.7757607,25.4450227 61.9669101,25.5580911 61.0641915,25.5580911 L56.8312881,25.5580911 C56.8312881,24.316472 57.4146114,24.0531537 58.1670801,24.0153626 L58.1670801,19.9522142 C58.1670801,18.8611498 57.9790391,18.0145082 56.7749063,18.0145082 C56.0224375,18.0145082 55.3641417,18.3719994 54.8372002,18.8233587 L54.8372002,23.9964671 L56.1540967,23.9964671 C56.1540967,25.4450227 55.3452461,25.5580911 54.4422227,25.5580911 L50.2096241,25.5580911 C50.2096241,24.2222991 50.905711,24.0153626 51.7331523,23.9964671 L51.7331523,17.8825442 L50.2096241,17.8825442 C50.2096241,16.6787161 50.4165606,15.9640384 53.2569854,15.9640384 C53.5017129,15.9640384 54.5175,16.0579066 54.7430273,16.1142884" id="Fill-4" fill="#FFFFFF" sketch:type="MSShapeGroup"></path>
            <path d="M69.6311807,25.7650277 L69.6311807,24.730345 C68.8223301,25.4075364 67.8440293,25.9341731 66.8282422,25.9341731 C65.0974727,25.9341731 63.7619854,24.8808997 63.7619854,23.3381712 C63.7619854,21.6451927 65.0036046,20.6668919 67.7498565,20.6668919 L69.5373126,20.6668919 L69.5373126,20.3657825 C69.5373126,18.5036586 69.3864531,17.4875667 68.0320703,17.4875667 C67.2607061,17.4875667 66.7151738,17.7886761 66.7151738,17.7886761 L66.7151738,19.9522142 C66.2074327,20.1024642 63.9875127,20.3094007 63.9875127,18.5411449 C63.9875127,16.8103753 66.4521603,15.9640384 68.7092617,15.9640384 C71.1925,15.9640384 72.6410557,17.2245531 72.6410557,20.1402552 L72.6410557,24.0342581 L74.1645839,24.0342581 C74.1645839,25.2380862 73.8073975,25.7650277 71.5122002,25.7650277 L69.6311807,25.7650277 L69.6311807,25.7650277 Z M69.5373126,23.1876165 L69.5373126,21.9648929 L68.8409209,21.9648929 C67.7312657,21.9648929 66.9599014,22.3787659 66.9599014,23.1876165 C66.9599014,23.8462171 67.4115655,24.0906399 67.994584,24.0906399 C68.6528799,24.0906399 69.1609258,23.6578714 69.5373126,23.1876165 L69.5373126,23.1876165 Z" id="Fill-5" fill="#FFFFFF" sketch:type="MSShapeGroup"></path>
            <path d="M84.9249784,14.2521644 L84.9249784,23.9025989 L88.6254545,23.9025989 C88.7007319,21.8332337 89.1520912,20.7985511 90.694515,20.7985511 L90.694515,25.5580911 L79.9777021,25.5580911 C79.9777021,24.1095355 80.7865527,23.8084261 81.6895762,23.8084261 L81.7270624,23.8084261 L81.7270624,14.2521644 L79.9962929,14.2521644 C79.9962929,12.8036088 80.4290615,12.2016947 81.7081669,12.2016947 L86.7124346,12.2016947 C86.7124346,13.6502504 86.279666,14.2521644 85.0002558,14.2521644 L84.9249784,14.2521644 Z" id="Fill-6" fill="#FFFFFF" sketch:type="MSShapeGroup"></path>
            <path d="M96.7971615,25.9341731 C93.9000501,25.9341731 91.5862621,24.0717444 91.5862621,20.9491058 C91.5862621,17.8264672 93.9000501,15.9640384 96.7971615,15.9640384 C99.6942728,15.9640384 102.008061,17.8264672 102.008061,20.9491058 C102.008061,24.0717444 99.6942728,25.9341731 96.7971615,25.9341731 L96.7971615,25.9341731 Z M96.7971615,17.4311849 C95.4805698,17.4311849 94.7841781,19.18085 94.7841781,20.9491058 C94.7841781,22.7173616 95.4427787,24.4667219 96.7971615,24.4667219 C98.1515443,24.4667219 98.8101449,22.7173616 98.8101449,20.9491058 C98.8101449,19.18085 98.0951625,17.4311849 96.7971615,17.4311849 L96.7971615,17.4311849 Z" id="Fill-7" fill="#FFFFFF" sketch:type="MSShapeGroup"></path>
            <path d="M108.280158,19.5191409 L108.299053,17.6945032 C108.148498,17.5817396 107.584375,17.4122893 107.132711,17.4122893 C106.45552,17.4122893 105.627774,17.6945032 105.627774,18.3531039 C105.627774,19.0680863 107.170502,19.5191409 108.543781,20.196637 C109.93565,20.8738284 110.782291,21.7957474 110.782291,23.0181663 C110.782291,24.7489358 109.390118,25.9341731 106.925775,25.9341731 C104.593091,25.9341731 102.768454,24.9936634 102.768454,23.3381712 C102.749558,21.8332337 104.705855,21.8332337 105.270283,22.0212747 L105.270283,24.0531537 C105.552496,24.2411946 106.323861,24.4667219 106.906879,24.4667219 C107.88518,24.4667219 108.50599,24.0342581 108.50599,23.3192757 C108.50599,22.5671117 107.057434,22.1718294 106.041647,21.6829838 C104.818923,21.080765 103.313986,20.384678 103.313986,18.7669769 C103.313986,17.0736937 104.894201,15.9640384 107.095225,15.9640384 C109.108208,15.9640384 110.631737,16.8670619 110.631737,18.0894807 C110.631737,19.7452777 108.919863,19.7263822 108.280158,19.5191409" id="Fill-8" fill="#FFFFFF" sketch:type="MSShapeGroup"></path>
            <path d="M117.539577,23.9400852 C118.856473,23.9400852 119.646428,22.8493256 120.116988,21.8710248 C120.98222,22.1907249 121.113879,23.2254076 120.700006,24.1095355 C120.305029,24.9369768 119.23286,25.9341731 117.050426,25.9341731 C114.097238,25.9341731 111.858422,23.8837034 111.858422,20.9302103 C111.858422,18.0519945 114.021656,15.9640384 116.918767,15.9640384 C119.87226,15.9640384 121.396093,17.8450579 121.396093,19.7452777 C121.396093,20.196637 121.320816,20.6668919 121.189157,20.9491058 L114.699152,20.9491058 C114.774429,22.8112297 115.921875,23.9400852 117.539577,23.9400852 L117.539577,23.9400852 Z M114.811915,19.6322093 L118.912855,19.6322093 C118.912855,18.4094857 118.254559,17.3933938 116.994044,17.3933938 C115.846598,17.3933938 115.075234,18.3531039 114.811915,19.6322093 L114.811915,19.6322093 Z" id="Fill-9" fill="#FFFFFF" sketch:type="MSShapeGroup"></path>
            <path d="M126.121804,26.1222141 L122.735542,17.8825442 L121.39975,17.8825442 C121.39975,16.3401204 122.208601,16.1520794 123.111929,16.1520794 L127.156182,16.1520794 C127.156182,17.3933938 126.629545,17.7697806 125.952354,17.8639535 L127.89006,22.6420843 L129.808871,17.8825442 L128.134483,17.8825442 C128.134483,16.3401204 128.943333,16.1520794 129.846357,16.1520794 L133.270105,16.1520794 C133.270105,17.6945032 132.461254,17.8825442 131.558231,17.8825442 L131.464058,17.8825442 C130.74938,19.782764 128.962229,24.3917493 128.285037,25.4075364 C127.795887,26.1411097 126.7801,26.4233235 126.121804,26.1222141" id="Fill-10" fill="#FFFFFF" sketch:type="MSShapeGroup"></path>
            <path d="M139.090537,25.7650277 L139.090537,24.730345 C138.281992,25.4075364 137.303691,25.9341731 136.287599,25.9341731 C134.556829,25.9341731 133.221647,24.8808997 133.221647,23.3381712 C133.221647,21.6451927 134.462961,20.6668919 137.209518,20.6668919 L138.996669,20.6668919 L138.996669,20.3657825 C138.996669,18.5036586 138.846115,17.4875667 137.491732,17.4875667 C136.720368,17.4875667 136.174835,17.7886761 136.174835,17.7886761 L136.174835,19.9522142 C135.667094,20.1024642 133.447174,20.3094007 133.447174,18.5411449 C133.447174,16.8103753 135.911517,15.9640384 138.168923,15.9640384 C140.651857,15.9640384 142.100412,17.2245531 142.100412,20.1402552 L142.100412,24.0342581 L143.624245,24.0342581 C143.624245,25.2380862 143.266754,25.7650277 140.971862,25.7650277 L139.090537,25.7650277 L139.090537,25.7650277 Z M138.996669,23.1876165 L138.996669,21.9648929 L138.300582,21.9648929 C137.190622,21.9648929 136.419563,22.3787659 136.419563,23.1876165 C136.419563,23.8462171 136.870922,24.0906399 137.453941,24.0906399 C138.112541,24.0906399 138.620283,23.6578714 138.996669,23.1876165 L138.996669,23.1876165 Z" id="Fill-11" fill="#FFFFFF" sketch:type="MSShapeGroup"></path>
        </g>
    </g>
</svg>