<?xml version="1.0" encoding="utf-8"?>
<!-- Generator: Adobe Illustrator 18.0.0, SVG Export Plug-In . SVG Version: 6.00 Build 0)  -->
<!DOCTYPE svg PUBLIC "-//W3C//DTD SVG 1.1//EN" "http://www.w3.org/Graphics/SVG/1.1/DTD/svg11.dtd">
<svg version="1.1" id="Layer_1" xmlns:sketch="http://www.bohemiancoding.com/sketch/ns"
	 xmlns="http://www.w3.org/2000/svg" xmlns:xlink="http://www.w3.org/1999/xlink" x="0px" y="0px" viewBox="0 18.5 46 47.5"
	 enable-background="new 0 18.5 46 47.5" xml:space="preserve">
<title>alina_top</title>
<desc>Created with Sketch.</desc>
<g id="Page-1" sketch:type="MSPage">
	<g id="alina_top" sketch:type="MSLayerGroup">
		<path id="Fill-1" sketch:type="MSShapeGroup" d="M15.1,65.3c-1.6,0-3-1.3-3-3v-9H3.4c-1.1,0-2.1-0.6-2.6-1.6
			c-0.5-1-0.4-2.2,0.2-3.1l19.7-28.4c0.6-0.8,1.5-1.3,2.4-1.3c1,0,1.9,0.5,2.4,1.3l19.7,28.4c0.6,0.9,0.7,2.1,0.2,3.1
			c-0.5,1-1.5,1.6-2.6,1.6H34v9c0,1.7-1.3,3-3,3H15.1z M18.1,59.3H28v-9c0-1.7,1.3-3,3-3h6l-14-20.1l-14,20.1h6c1.6,0,3,1.3,3,3
			V59.3L18.1,59.3z"/>
	</g>
</g>
</svg>
