<?xml version="1.0" encoding="UTF-8" standalone="no"?>
<svg width="356px" height="43px" viewBox="0 0 356 43" version="1.1" xmlns="http://www.w3.org/2000/svg" xmlns:xlink="http://www.w3.org/1999/xlink" xmlns:sketch="http://www.bohemiancoding.com/sketch/ns">
    <!-- Generator: Sketch 3.3.1 (12002) - http://www.bohemiancoding.com/sketch -->
    <title>alina_loseva_logo</title>
    <desc>Created with Sketch.</desc>
    <defs></defs>
    <g id="Page-1" stroke="none" stroke-width="1" fill="none" fill-rule="evenodd" sketch:type="MSPage">
        <g id="alina_loseva_logo" sketch:type="MSLayerGroup" transform="translate(0.000000, 0.000000)" fill="#000000">
            <path d="M14.28178,41.1338 L-0.00957457213,41.1338 C-0.00957457213,37.04622 2.30050856,36.19654 4.87955012,36.19654 L6.70655257,36.19654 C9.60677751,28.87106 17.6128606,8.75222 18.2578386,7.37192 C19.9229438,3.70918 23.0390318,2.7004 26.9611247,3.01946 C26.9611247,3.01946 32.6022885,16.71496 40.5535355,36.19654 L45.4435306,36.19654 C45.4435306,40.28412 43.132577,41.1338 40.5535355,41.1338 L26.2630513,41.1338 C26.2630513,37.41688 28.1971149,36.35564 30.507198,36.24986 L27.6600685,29.18926 L15.0877848,29.18926 L12.4008117,36.19654 L19.1709046,36.19654 C19.1709046,40.28412 16.8608215,41.1338 14.28178,41.1338 L14.28178,41.1338 Z M16.9147873,24.51774 L25.7791002,24.51774 L21.2659951,13.37042 L16.9147873,24.51774 L16.9147873,24.51774 Z" id="Fill-1" sketch:type="MSShapeGroup"></path>
            <path d="M59.7348851,0.57792 L59.7348851,36.67384 L64.0329976,36.67384 C64.0329976,40.76142 61.7229144,41.08048 59.1438729,41.08048 L46.5184939,41.08048 C46.5184939,37.3111 48.5065232,36.72716 50.8697017,36.67384 L50.8697017,5.56764 L46.5184939,5.56764 C46.5184939,2.16978 47.1095061,0.15222 55.22178,0.15222 C55.9207237,0.15222 59.0899071,0.41796 59.7348851,0.57792" id="Fill-2" sketch:type="MSShapeGroup"></path>
            <path d="M80.3341418,14.43166 L80.3341418,36.67384 L84.6322543,36.67384 C84.6322543,40.76142 82.3221711,41.08048 79.7431296,41.08048 L67.1177506,41.08048 C67.1177506,37.3111 69.10578,36.72716 71.4689584,36.67384 L71.4689584,19.42138 L67.1177506,19.42138 C67.1177506,16.02438 67.7087628,14.00768 75.8210367,14.00768 C76.5199804,14.00768 79.6891638,14.27256 80.3341418,14.43166 L80.3341418,14.43166 Z M75.1769291,1.37342 C77.9169976,1.37342 80.1731149,3.6034 80.1731149,6.364 C80.1731149,9.07128 77.9169976,11.3004 75.1769291,11.3004 C72.4368606,11.3004 70.1798729,9.07128 70.1798729,6.364 C70.1798729,3.6034 72.4368606,1.37342 75.1769291,1.37342 L75.1769291,1.37342 Z" id="Fill-3" sketch:type="MSShapeGroup"></path>
            <path d="M102.082347,14.43166 L102.082347,17.88284 C104.231403,15.86528 107.025438,14.00768 110.410484,14.00768 C118.415697,14.00768 120.72578,18.46678 120.72578,25.36742 L120.72578,36.67384 L125.023892,36.67384 C125.023892,40.76142 122.713809,41.08048 120.135638,41.08048 L108.046435,41.08048 C108.046435,37.57684 109.712411,36.8338 111.861467,36.72716 L111.861467,25.26164 C111.861467,22.18284 111.324421,19.79376 107.885408,19.79376 C105.736352,19.79376 103.856254,20.80254 102.351306,22.0762 L102.351306,36.67384 L106.112372,36.67384 C106.112372,40.76142 103.802289,41.08048 101.223247,41.08048 L89.1349144,41.08048 C89.1349144,37.3111 91.1229438,36.72716 93.4861222,36.67384 L93.4861222,19.42138 L89.1349144,19.42138 C89.1349144,16.02438 89.7259267,14.00768 97.8382005,14.00768 C98.5371443,14.00768 101.43824,14.27256 102.082347,14.43166" id="Fill-4" sketch:type="MSShapeGroup"></path>
            <path d="M144.603022,41.66442 L144.603022,38.74472 C142.292939,40.65564 139.498905,42.14172 136.597809,42.14172 C131.654719,42.14172 127.840557,39.16956 127.840557,34.81624 C127.840557,30.03894 131.386631,27.27834 139.229946,27.27834 L144.334934,27.27834 L144.334934,26.42866 C144.334934,21.17406 143.904078,18.30682 140.035951,18.30682 C137.832929,18.30682 136.274885,19.1565 136.274885,19.1565 L136.274885,25.26164 C134.824773,25.68562 128.484665,26.26956 128.484665,21.27984 C128.484665,16.3959 135.523716,14.00768 141.970015,14.00768 C149.062161,14.00768 153.199247,17.56464 153.199247,25.79226 L153.199247,36.78048 L157.550455,36.78048 C157.550455,40.17748 156.530328,41.66442 149.975227,41.66442 L144.603022,41.66442 L144.603022,41.66442 Z M144.334934,34.3914 L144.334934,30.94108 L142.346034,30.94108 C139.176851,30.94108 136.973829,32.10896 136.973829,34.3914 C136.973829,36.24986 138.263785,36.93958 139.92889,36.93958 C141.808988,36.93958 143.259971,35.71838 144.334934,34.3914 L144.334934,34.3914 Z" id="Fill-5" sketch:type="MSShapeGroup"></path>
            <path d="M188.497213,9.17706 L188.28222,9.17706 L188.28222,36.40896 L198.850807,36.40896 C199.0658,30.56956 200.354885,27.64986 204.760059,27.64986 L204.760059,41.08048 L174.152763,41.08048 C174.152763,36.9929 176.462846,36.14322 179.041888,36.14322 L179.148949,36.14322 L179.148949,9.17706 L174.205858,9.17706 C174.205858,5.08948 175.441848,3.39098 179.094983,3.39098 L193.387208,3.39098 C193.387208,7.47856 192.151218,9.17706 188.497213,9.17706" id="Fill-6" sketch:type="MSShapeGroup"></path>
            <path d="M222.189262,42.14172 C213.91509,42.14172 207.306895,36.88626 207.306895,28.0747 C207.306895,19.26314 213.91509,14.00768 222.189262,14.00768 C230.463433,14.00768 237.071628,19.26314 237.071628,28.0747 C237.071628,36.88626 230.463433,42.14172 222.189262,42.14172 L222.189262,42.14172 Z M222.189262,18.14772 C218.429066,18.14772 216.440166,23.08498 216.440166,28.0747 C216.440166,33.06442 218.321134,38.00082 222.189262,38.00082 C226.057389,38.00082 227.938357,33.06442 227.938357,28.0747 C227.938357,23.08498 225.896362,18.14772 222.189262,18.14772 L222.189262,18.14772 Z" id="Fill-7" sketch:type="MSShapeGroup"></path>
            <path d="M254.984782,24.03958 L255.038748,18.89076 C254.608763,18.57256 252.997623,18.0944 251.707667,18.0944 C249.773604,18.0944 247.409555,18.89076 247.409555,20.74922 C247.409555,22.76678 251.815599,24.03958 255.737692,25.95136 C259.71288,27.86228 262.130895,30.46378 262.130895,33.91324 C262.130895,38.79718 258.154836,42.14172 251.116655,42.14172 C244.454494,42.14172 239.243315,39.48776 239.243315,34.81624 C239.18935,30.56956 244.776548,30.56956 246.388557,31.10018 L246.388557,36.8338 C247.194562,37.36442 249.397584,38.00082 251.062689,38.00082 C253.856724,38.00082 255.62976,36.78048 255.62976,34.76292 C255.62976,32.64044 251.492675,31.52502 248.591579,30.14558 C245.099472,28.44622 240.801359,26.48198 240.801359,21.9171 C240.801359,17.13894 245.314465,14.00768 251.600606,14.00768 C257.349702,14.00768 261.70091,16.55586 261.70091,20.00532 C261.70091,24.6777 256.811785,24.62438 254.984782,24.03958" id="Fill-8" sketch:type="MSShapeGroup"></path>
            <path d="M281.429751,36.51474 C285.190817,36.51474 287.446934,33.4368 288.790856,30.6762 C291.261966,31.57834 291.637985,34.49804 290.455961,36.9929 C289.327902,39.3278 286.26578,42.14172 280.032733,42.14172 C271.598406,42.14172 265.204333,36.35564 265.204333,28.02138 C265.204333,19.89954 271.382543,14.00768 279.656714,14.00768 C288.091912,14.00768 292.44399,19.3156 292.44399,24.6777 C292.44399,25.95136 292.228998,27.27834 291.852978,28.0747 L273.317477,28.0747 C273.532469,33.3293 276.809584,36.51474 281.429751,36.51474 L281.429751,36.51474 Z M273.639531,24.35864 L285.351844,24.35864 C285.351844,20.90832 283.471746,18.04108 279.871707,18.04108 C276.594592,18.04108 274.39157,20.74922 273.639531,24.35864 L273.639531,24.35864 Z" id="Fill-9" sketch:type="MSShapeGroup"></path>
            <path d="M305.940655,42.67234 L296.269467,19.42138 L292.454435,19.42138 C292.454435,15.06892 294.764518,14.5383 297.34443,14.5383 L308.894846,14.5383 C308.894846,18.04108 307.390768,19.10318 305.456704,19.36892 L310.990807,32.852 L316.470944,19.42138 L311.68888,19.42138 C311.68888,15.06892 313.998963,14.5383 316.578005,14.5383 L326.356254,14.5383 C326.356254,18.89076 324.046171,19.42138 321.46713,19.42138 L321.198171,19.42138 C319.157046,24.78348 314.052929,37.78926 312.118866,40.65564 C310.721848,42.72566 307.820753,43.52202 305.940655,42.67234" id="Fill-10" sketch:type="MSShapeGroup"></path>
            <path d="M342.979452,41.66442 L342.979452,38.74472 C340.67024,40.65564 337.876205,42.14172 334.97424,42.14172 C330.031149,42.14172 326.217858,39.16956 326.217858,34.81624 C326.217858,30.03894 329.763061,27.27834 337.607247,27.27834 L342.711364,27.27834 L342.711364,26.42866 C342.711364,21.17406 342.281379,18.30682 338.413252,18.30682 C336.21023,18.30682 334.652186,19.1565 334.652186,19.1565 L334.652186,25.26164 C333.202073,25.68562 326.861966,26.26956 326.861966,21.27984 C326.861966,16.3959 333.900147,14.00768 340.347315,14.00768 C347.438592,14.00768 351.575677,17.56464 351.575677,25.79226 L351.575677,36.78048 L355.927756,36.78048 C355.927756,40.17748 354.906758,41.66442 348.352528,41.66442 L342.979452,41.66442 L342.979452,41.66442 Z M342.711364,34.3914 L342.711364,30.94108 L340.723335,30.94108 C337.553281,30.94108 335.35113,32.10896 335.35113,34.3914 C335.35113,36.24986 336.640215,36.93958 338.30532,36.93958 C340.186289,36.93958 341.636401,35.71838 342.711364,34.3914 L342.711364,34.3914 Z" id="Fill-11" sketch:type="MSShapeGroup"></path>
        </g>
    </g>
</svg>