<?xml version="1.0" encoding="UTF-8" standalone="no"?>
<svg width="24px" height="24px" viewBox="0 0 24 24" version="1.1" xmlns="http://www.w3.org/2000/svg" xmlns:xlink="http://www.w3.org/1999/xlink" xmlns:sketch="http://www.bohemiancoding.com/sketch/ns">
    <!-- Generator: Sketch 3.3.1 (12002) - http://www.bohemiancoding.com/sketch -->
    <title>Fill 606</title>
    <desc>Created with Sketch.</desc>
    <defs></defs>
    <g id="Page-1" stroke="none" stroke-width="1" fill="none" fill-rule="evenodd" sketch:type="MSPage">
        <g id="Mobile-Portrait" sketch:type="MSArtboardGroup" transform="translate(-247.000000, -8.000000)" fill="#000000">
            <path d="M258.806085,8.26012028 C252.455167,8.26012028 247.306085,13.4084846 247.306085,19.7601203 C247.306085,26.111038 252.455167,31.2601203 258.806085,31.2601203 C265.15772,31.2601203 270.306085,26.111038 270.306085,19.7601203 C270.306085,13.4084846 265.15772,8.26012028 258.806085,8.26012028 L258.806085,8.26012028 Z M250.879284,17.0735801 C250.879284,16.2996383 251.506765,15.6721567 252.280707,15.6721567 C253.055367,15.6721567 253.682848,16.2996383 253.682848,17.0735801 C253.682848,17.8482399 253.055367,18.4757215 252.280707,18.4757215 C251.506765,18.4757215 250.879284,17.8482399 250.879284,17.0735801 L250.879284,17.0735801 Z M258.806085,28.1499942 C255.220681,28.1499942 252.313732,25.2430457 252.313732,21.6569239 L265.299155,21.6569239 C265.299155,25.2430457 262.392207,28.1499942 258.806085,28.1499942 L258.806085,28.1499942 Z M265.299155,18.4757215 C264.524495,18.4757215 263.897014,17.8482399 263.897014,17.0735801 C263.897014,16.2996383 264.524495,15.6721567 265.299155,15.6721567 C266.073097,15.6721567 266.700578,16.2996383 266.700578,17.0735801 C266.700578,17.8482399 266.073097,18.4757215 265.299155,18.4757215 L265.299155,18.4757215 Z" id="Fill-606" sketch:type="MSShapeGroup"></path>
        </g>
    </g>
</svg>