<?xml version="1.0" encoding="UTF-8" standalone="no"?>
<svg width="33px" height="33px" viewBox="0 0 33 33" version="1.1" xmlns="http://www.w3.org/2000/svg" xmlns:xlink="http://www.w3.org/1999/xlink" xmlns:sketch="http://www.bohemiancoding.com/sketch/ns">
    <!-- Generator: Sketch 3.3.1 (12002) - http://www.bohemiancoding.com/sketch -->
    <title>alina_smile</title>
    <desc>Created with Sketch.</desc>
    <defs></defs>
    <g id="Page-1" stroke="none" stroke-width="1" fill="none" fill-rule="evenodd" sketch:type="MSPage">
        <g id="alina_smile" sketch:type="MSArtboardGroup">
            <g id="Imported-Layers" sketch:type="MSLayerGroup">
                <path d="M32.431,16.447 C32.431,25.294 25.259,32.465 16.413,32.465 C7.567,32.465 0.395,25.294 0.395,16.447 C0.395,7.601 7.567,0.429 16.413,0.429 C25.259,0.429 32.431,7.601 32.431,16.447" id="Fill-1" fill="#0036D4" sketch:type="MSShapeGroup"></path>
                <path d="M25.456,19.09 C25.456,24.084 21.407,28.133 16.413,28.133 C11.419,28.133 7.37,24.084 7.37,19.09" id="Fill-2" fill="#A5FFD1" sketch:type="MSShapeGroup"></path>
                <path d="M9.276,12.706 C9.276,13.784 8.402,14.658 7.324,14.658 C6.246,14.658 5.372,13.784 5.372,12.706 C5.372,11.628 6.246,10.754 7.324,10.754 C8.402,10.754 9.276,11.628 9.276,12.706" id="Fill-3" fill="#A5FFD1" sketch:type="MSShapeGroup"></path>
                <path d="M27.409,12.706 C27.409,13.784 26.535,14.658 25.456,14.658 C24.378,14.658 23.504,13.784 23.504,12.706 C23.504,11.628 24.378,10.754 25.456,10.754 C26.535,10.754 27.409,11.628 27.409,12.706" id="Fill-4" fill="#A5FFD1" sketch:type="MSShapeGroup"></path>
            </g>
        </g>
    </g>
</svg>