<?xml version="1.0" encoding="UTF-8" standalone="no"?>
<svg width="49px" height="49px" viewBox="0 0 49 49" version="1.1" xmlns="http://www.w3.org/2000/svg" xmlns:xlink="http://www.w3.org/1999/xlink" xmlns:sketch="http://www.bohemiancoding.com/sketch/ns">
    <!-- Generator: Sketch 3.3.1 (12002) - http://www.bohemiancoding.com/sketch -->
    <title>alina_arrow</title>
    <desc>Created with Sketch.</desc>
    <defs></defs>
    <g id="Page-1" stroke="none" stroke-width="1" fill="none" fill-rule="evenodd" sketch:type="MSPage">
        <path d="M0,32.4633003 L0,15.632263 C0,13.8892867 1.41250704,12.4763308 3.15492958,12.4763308 L12.6197183,12.4763308 L12.6197183,3.15551043 C12.6197183,1.97879856 13.2732394,0.901273141 14.316169,0.357551107 C15.3590986,-0.186170927 16.6174648,-0.105018385 17.5810704,0.568547717 L47.4807887,21.4608189 C48.3254085,22.0514291 48.8292958,23.0162426 48.8292958,24.0477816 C48.8292958,25.0793206 48.3254085,26.0441342 47.4807887,26.6347443 L17.5810704,47.5270155 C16.6174648,48.2005816 15.3590986,48.2817342 14.316169,47.7389138 C13.2732394,47.1942901 12.6197183,46.1167647 12.6197183,44.9400528 L12.6197183,35.6201342 L3.15492958,35.6201342 C1.41250704,35.6201342 0,34.2071782 0,32.4633003 L0,32.4633003 Z M6.30985915,18.7881952 L6.30985915,29.3082698 L15.7746479,29.3082698 C17.5170704,29.3082698 18.9295775,30.720324 18.9295775,32.4633003 L18.9295775,38.8860731 L40.1649577,24.0477816 L18.9295775,9.21039178 L18.9295775,15.632263 C18.9295775,17.3752392 17.5170704,18.7881952 15.7746479,18.7881952 L6.30985915,18.7881952 L6.30985915,18.7881952 Z" id="alina_arrow" fill="#000000" sketch:type="MSShapeGroup"></path>
    </g>
</svg>