<?xml version="1.0" encoding="UTF-8" standalone="no"?>
<svg width="46px" height="46px" viewBox="0 0 46 46" version="1.1" xmlns="http://www.w3.org/2000/svg" xmlns:xlink="http://www.w3.org/1999/xlink" xmlns:sketch="http://www.bohemiancoding.com/sketch/ns">
    <!-- Generator: Sketch 3.3.1 (12002) - http://www.bohemiancoding.com/sketch -->
    <title>alina_cross</title>
    <desc>Created with Sketch.</desc>
    <defs></defs>
    <g id="Page-1" stroke="none" stroke-width="1" fill="none" fill-rule="evenodd" sketch:type="MSPage">
        <path d="M27.2209577,22.7673458 L44.5956056,5.38807797 C45.827831,4.15455932 45.827831,2.15730508 44.5956056,0.923786441 C43.3624789,-0.307928814 41.3658592,-0.307928814 40.1336338,0.923786441 L22.7598873,18.3039559 L5.38523944,0.923786441 C4.15301408,-0.307928814 2.15639437,-0.307928814 0.924169014,0.923786441 C-0.308056338,2.15730508 -0.308056338,4.15455932 0.924169014,5.38807797 L18.2979155,22.7673458 L0.924169014,40.1457119 C-0.308056338,41.3792305 -0.308056338,43.3764847 0.924169014,44.6100034 C1.54073239,45.225861 2.34749296,45.533339 3.15515493,45.533339 C3.96191549,45.533339 4.76957746,45.225861 5.38523944,44.6100034 L22.7598873,27.2298339 L40.1336338,44.6100034 C40.7501972,45.225861 41.5569577,45.533339 42.3646197,45.533339 C43.1713803,45.533339 43.9790423,45.225861 44.5956056,44.6100034 C45.827831,43.3764847 45.827831,41.3792305 44.5956056,40.1457119 L27.2209577,22.7673458" id="alina_cross" fill="#000000" sketch:type="MSShapeGroup"></path>
    </g>
</svg>